<?xml version="1.0" encoding="UTF-8" standalone="no"?>
<svg
   width="120"
   height="60"
   fill-rule="evenodd"
   version="1.1"
   id="svg490"
   sodipodi:docname="archlinux-logo.svg"
   inkscape:version="1.2.1 (9c6d41e410, 2022-07-14)"
   inkscape:export-filename="../images/archlinux-logo.png"
   inkscape:export-xdpi="96"
   inkscape:export-ydpi="96"
   xmlns:inkscape="http://www.inkscape.org/namespaces/inkscape"
   xmlns:sodipodi="http://sodipodi.sourceforge.net/DTD/sodipodi-0.dtd"
   xmlns="http://www.w3.org/2000/svg"
   xmlns:svg="http://www.w3.org/2000/svg">
  <defs
     id="defs494" />
  <sodipodi:namedview
     id="namedview492"
     pagecolor="#505050"
     bordercolor="#ffffff"
     borderopacity="1"
     inkscape:showpageshadow="0"
     inkscape:pageopacity="0"
     inkscape:pagecheckerboard="1"
     inkscape:deskcolor="#505050"
     showgrid="false"
     inkscape:zoom="10.866667"
     inkscape:cx="59.999998"
     inkscape:cy="29.999999"
     inkscape:window-width="1918"
     inkscape:window-height="1057"
     inkscape:window-x="1920"
     inkscape:window-y="21"
     inkscape:window-maximized="1"
     inkscape:current-layer="svg490" />
  <path
     d="m 117.49217,45.760872 c -4.85408,-0.0066 -8.88376,0.989283 -10.44023,1.530091 l -1.60264,8.659522 c -0.003,0.03298 7.98021,-2.130256 11.49876,-2.001649 5.82358,0.207749 6.36439,2.225886 6.25886,4.946414 0.0989,0.158285 -1.5037,-2.460017 -6.54245,-2.545755 -6.35779,-0.108821 -15.32729,2.24897 -15.3141,11.845013 -0.17147,10.793075 8.06266,13.968673 13.66859,14.024732 5.04534,-0.09233 7.40643,-1.912613 8.69909,-2.882111 l 5.50701,-5.711459 c -1.75762,3.192086 -3.27782,5.398187 -4.86397,7.08986 v 1.424567 l 7.66364,-1.319043 0.0528,-20.8277 c -0.0791,-2.948063 1.69168,-14.229184 -14.58202,-14.255565 z m -1.1014,18.136851 c 3.17559,0.04287 6.81945,1.609233 6.82605,5.375103 0.0165,3.429514 -4.29349,5.26958 -7.09646,5.276175 -2.80297,0.0066 -6.52926,-2.202803 -6.54245,-5.546579 0.0528,-2.987634 3.50865,-5.150866 6.81286,-5.078318 z m 20.73207,-16.181369 -0.0528,34.492993 8.92663,-1.721352 0.0165,-19.554823 c 0.003,-2.911789 4.16158,-6.314921 9.3784,-6.258862 1.108,-2.004946 3.18879,-7.122836 3.69332,-8.29019 -11.65705,-0.02638 -11.80544,3.350371 -13.83347,5.012366 l -0.007,-5.078318 -8.12531,1.394889 z m 50.23907,4.497939 c -0.0857,-0.03957 -4.65622,-5.342126 -13.84336,-5.388293 -8.57378,-0.141797 -18.25557,3.192086 -18.41055,17.622424 0.0758,12.685902 9.27287,17.642209 18.46001,17.741137 9.83347,0.09893 13.74444,-6.146743 13.98187,-6.265457 -1.17395,-1.015664 -5.56637,-5.375103 -5.56637,-5.375103 0,0 -2.74361,3.907667 -8.06925,3.957131 -5.32564,0.04946 -9.95878,-4.115416 -10.02473,-9.932399 -0.066,-5.816983 4.28689,-8.969497 10.05771,-9.220116 5.02555,0 7.92745,3.244848 7.92745,3.244848 z m 11.25474,-16.600164 -8.42869,1.978565 0.066,44.926628 8.30338,-1.500412 0.0989,-21.14427 c 0.0165,-2.215994 3.20858,-5.622424 8.53422,-5.513603 5.09151,0.05276 6.26545,3.396538 6.21599,3.815334 l 0.14839,24.474856 8.18797,-1.450948 0.033,-25.952185 c 0.0528,-2.49629 -5.47403,-7.772465 -14.35119,-7.808739 -4.22094,0.0066 -6.55565,0.962902 -7.74938,1.665293 l -6.66118,5.012366 c 2.11047,-2.713932 3.88459,-4.590272 5.61913,-5.985161 l -0.0198,-12.514427 z"
     fill="#4d4d4d"
     id="path486"
     style="fill:#ffffff;stroke-width:3.29761" />
  <path
     d="m 228.87222,36.781482 3.80214,-0.989282 0.18137,45.292662 -3.8582,0.659522 z m 10.3347,13.520198 3.29761,-1.483924 0.033,32.481451 -3.21847,0.666117 z m -0.79142,-11.713108 2.68755,-2.19291 2.23248,2.4831 -2.68755,2.252267 z m 10.38747,11.119538 3.80214,-0.774938 0.0165,6.793075 c 0,0.29019 2.08739,-7.584501 12.15499,-7.409728 9.77411,0.05276 11.37675,7.584502 11.32069,9.319044 l 0.12201,23.874691 -3.29761,0.725474 -0.0198,-23.584501 c 0.0396,-0.659522 -1.5235,-6.512779 -8.42869,-6.529267 -6.9052,-0.01649 -11.69003,5.012366 -11.68343,8.234131 l 0.0561,20.774938 -3.85821,1.009068 z m 60.61995,31.967024 -3.80215,0.774939 -0.0165,-6.793075 c 0,-0.29019 -2.08739,7.584501 -12.15499,7.409727 -9.77411,-0.05276 -11.37675,-7.584501 -11.32069,-9.319043 l -0.12201,-23.874691 4.03957,-0.81451 0.0659,23.584502 c 0.003,0.643033 0.77164,6.605111 7.68343,6.595218 6.91179,-0.0099 11.73949,-4.154987 11.77906,-10.453421 l -0.0495,-18.608409 3.75928,-0.989283 z m 7.41962,-32.237427 -2.66447,2.087386 10.22259,13.375103 -10.9019,15.452597 2.82935,2.09728 10.24238,-14.344601 10.57543,14.69085 2.615,-2.087387 -11.33388,-15.706513 9.04204,-12.702391 -2.77988,-2.351195 -8.23743,11.752679 z M 59.942292,14.905143 47.859852,43.521796 c 3.0338,3.218466 6.760099,6.96455 12.814509,11.198681 C 54.168178,52.042818 49.726298,49.355266 46.412201,46.565489 40.074196,59.755926 30.148392,78.624846 10,114.826 25.83512,105.68503 38.112119,100.04612 49.551525,97.896074 A 28.985985,28.985985 0 0 1 48.79967,91.112892 l 0.01979,-0.507832 c 0.250618,-10.146743 5.530091,-17.945589 11.782358,-17.417972 6.252267,0.527618 11.112943,9.18714 10.859027,19.333883 a 28.656224,28.656224 0 0 1 -0.639736,5.447651 C 82.1385,100.17802 94.280297,105.80374 109.89777,114.78643 L 101.4427,99.135975 c -4.135198,-3.205276 -8.448471,-7.376752 -17.246492,-11.894476 6.047815,1.572959 10.377576,3.383347 13.75103,5.408079 C 71.253092,42.948012 69.093157,36.346198 59.935697,14.826 Z"
     fill="#1793d1"
     id="path488"
     style="fill:#ffffff;stroke-width:3.29761" />
</svg>
