<?xml version="1.0" encoding="UTF-8" standalone="no"?>
<!-- Created with Inkscape (http://www.inkscape.org/) -->

<svg
   width="180.82774mm"
   height="93.450615mm"
   viewBox="0 0 180.82774 93.450615"
   version="1.1"
   id="svg879"
   inkscape:version="1.2.1 (9c6d41e410, 2022-07-14)"
   sodipodi:docname="artix-logo.svg"
   inkscape:export-filename="../images/artix-logo.png"
   inkscape:export-xdpi="96"
   inkscape:export-ydpi="96"
   xmlns:inkscape="http://www.inkscape.org/namespaces/inkscape"
   xmlns:sodipodi="http://sodipodi.sourceforge.net/DTD/sodipodi-0.dtd"
   xmlns="http://www.w3.org/2000/svg"
   xmlns:svg="http://www.w3.org/2000/svg"
   xmlns:rdf="http://www.w3.org/1999/02/22-rdf-syntax-ns#"
   xmlns:cc="http://creativecommons.org/ns#"
   xmlns:dc="http://purl.org/dc/elements/1.1/">
  <title
     id="title1672">Artix Logo Horizontal ColorFull</title>
  <defs
     id="defs873" />
  <sodipodi:namedview
     id="base"
     pagecolor="#ffffff"
     bordercolor="#666666"
     borderopacity="1.0"
     inkscape:pageopacity="0.0"
     inkscape:pageshadow="2"
     inkscape:zoom="1.7202166"
     inkscape:cx="288.9171"
     inkscape:cy="205.78804"
     inkscape:document-units="mm"
     inkscape:current-layer="layer1"
     showgrid="false"
     inkscape:snap-page="true"
     inkscape:snap-bbox="true"
     inkscape:bbox-paths="false"
     showguides="true"
     inkscape:guide-bbox="true"
     inkscape:snap-object-midpoints="true"
     fit-margin-top="0"
     fit-margin-left="0"
     fit-margin-right="0"
     fit-margin-bottom="0"
     inkscape:showpageshadow="0"
     inkscape:pagecheckerboard="1"
     inkscape:deskcolor="#d1d1d1"
     inkscape:window-width="1918"
     inkscape:window-height="1057"
     inkscape:window-x="1920"
     inkscape:window-y="21"
     inkscape:window-maximized="1" />
  <metadata
     id="metadata876">
    <rdf:RDF>
      <cc:Work
         rdf:about="">
        <dc:format>image/svg+xml</dc:format>
        <dc:type
           rdf:resource="http://purl.org/dc/dcmitype/StillImage" />
        <dc:title>Artix Logo Horizontal ColorFull</dc:title>
        <cc:license
           rdf:resource="http://creativecommons.org/licenses/by-nc-sa/4.0/" />
      </cc:Work>
      <cc:License
         rdf:about="http://creativecommons.org/licenses/by-nc-sa/4.0/">
        <cc:permits
           rdf:resource="http://creativecommons.org/ns#Reproduction" />
        <cc:permits
           rdf:resource="http://creativecommons.org/ns#Distribution" />
        <cc:requires
           rdf:resource="http://creativecommons.org/ns#Notice" />
        <cc:requires
           rdf:resource="http://creativecommons.org/ns#Attribution" />
        <cc:prohibits
           rdf:resource="http://creativecommons.org/ns#CommercialUse" />
        <cc:permits
           rdf:resource="http://creativecommons.org/ns#DerivativeWorks" />
        <cc:requires
           rdf:resource="http://creativecommons.org/ns#ShareAlike" />
      </cc:License>
    </rdf:RDF>
  </metadata>
  <g
     inkscape:label="Layer 1"
     inkscape:groupmode="layer"
     id="layer1">
    <path
       style="font-style:normal;font-variant:normal;font-weight:normal;font-stretch:normal;font-size:17.6389px;line-height:1.25;font-family:'Bai Jamjuree';-inkscape-font-specification:'Bai Jamjuree';text-align:center;letter-spacing:0px;word-spacing:0px;text-anchor:middle;display:inline;fill:#ffffff;fill-opacity:1;stroke:none;stroke-width:0.105348"
       d="m 106.01746,40.711894 c -0.29796,0 -0.53989,0.09319 -0.72612,0.27942 -0.18623,0.186221 -0.27921,0.428157 -0.27921,0.726115 0,0.297954 0.093,0.539891 0.27921,0.726116 0.18623,0.186225 0.42816,0.27942 0.72612,0.27942 0.29795,0 0.54051,-0.0932 0.72674,-0.27942 0.18622,-0.186225 0.27941,-0.428162 0.27941,-0.726116 0,-0.297958 -0.0932,-0.539894 -0.27941,-0.726115 -0.18623,-0.186226 -0.42879,-0.27942 -0.72674,-0.27942 z m -7.240173,0.595872 v 7.357458 c 0,0.968358 0.210601,1.663246 0.632707,2.085344 0.434516,0.422105 1.142636,0.633323 2.123406,0.633323 h 1.00553 V 50.19194 h -1.00553 c -0.50901,0 -0.87527,-0.117817 -1.09874,-0.353697 -0.21106,-0.235885 -0.35071,-0.627841 -0.31645,-1.173019 v -3.353632 h 2.42072 V 44.11964 h -2.42072 v -2.811874 z m -15.379303,2.662905 v 1.173433 h 3.326473 c 0.533838,0 0.96196,0.167257 1.284748,0.502459 0.322787,0.322784 0.484557,0.745009 0.484557,1.266433 v 0.112963 C 88.18339,46.814904 87.811023,46.647647 87.376502,46.5235 86.941982,46.399356 86.519343,46.336876 86.109656,46.336876 h -1.191538 c -0.918695,0 -1.65754,0.235837 -2.216208,0.707601 -0.558668,0.471761 -0.838048,1.098861 -0.838048,1.887202 0,0.788345 0.267176,1.421816 0.801011,1.89358 0.546257,0.471761 1.272066,0.707597 2.178347,0.707597 h 1.117467 c 0.49659,0 0.97498,-0.130434 1.434334,-0.391144 0.471764,-0.26071 0.850239,-0.614769 1.135779,-1.061704 v 1.303883 h 1.266432 v -4.470895 c 0,-0.881452 -0.285484,-1.588957 -0.856566,-2.122792 -0.558668,-0.546253 -1.297509,-0.819533 -2.216209,-0.819533 z m 9.129848,0.148969 v 7.264251 h 1.340917 V 48.06791 c 0,-0.831792 0.241941,-1.496368 0.72612,-1.992962 0.496594,-0.509009 1.142237,-0.763356 1.936789,-0.763356 V 44.11964 c -0.546253,0 -1.073673,0.136535 -1.582682,0.409663 -0.496594,0.273125 -0.868961,0.627184 -1.11726,1.061705 V 44.11964 Z m 12.819688,0 v 7.264251 h 1.3405 V 44.11964 Z m 3.531,0 3.22049,3.632024 -3.22049,3.632227 h 1.79172 l 2.32444,-2.621961 2.32505,2.621961 h 1.79152 l -3.2203,-3.632227 3.2203,-3.632024 h -1.79152 l -2.32505,2.621962 -2.32444,-2.621962 z m -23.960402,3.390669 h 1.191538 c 0.45935,0 0.9064,0.07427 1.340917,0.223247 0.446935,0.136562 0.79489,0.322752 1.043189,0.558632 v 0.09321 c -0.161395,0.595912 -0.471904,1.074302 -0.931257,1.43433 -0.459346,0.360036 -0.980666,0.539703 -1.564164,0.539703 H 84.84322 c -0.49659,0 -0.893373,-0.13002 -1.191331,-0.390734 -0.297954,-0.260714 -0.446903,-0.608701 -0.446903,-1.037014 0,-0.428313 0.155053,-0.769516 0.465422,-1.030225 0.322787,-0.260714 0.738701,-0.391145 1.24771,-0.391145 z"
       id="path4885-0"
       inkscape:connector-curvature="0"
       inkscape:label="Sign" />
    <path
       inkscape:label="Base"
       inkscape:connector-curvature="0"
       id="path886"
       d="m 72.790171,37.423151 -3.199109,6.559326 8.804342,4.933025 z m -4.165548,8.540972 -4.908128,10.063368 14.564094,-6.016951 z m 10.7329,4.924174 -4.593319,2.63698 7.099849,2.502214 z"
       style="display:inline;fill:#ffffff;fill-opacity:1;stroke:none;stroke-width:0.039796;stroke-linecap:butt;stroke-linejoin:miter;stroke-miterlimit:4;stroke-dasharray:none;stroke-opacity:1"
       sodipodi:nodetypes="cccccccccccc" />
    <path
       inkscape:label="Light"
       inkscape:connector-curvature="0"
       id="path947"
       d="m 77.709937,53.227765 1.64759,-2.339659 2.506526,5.139381 z"
       style="fill:#ffffff;fill-opacity:1;stroke:none;stroke-width:0.105348px;stroke-linecap:butt;stroke-linejoin:miter;stroke-opacity:1" />
    <path
       inkscape:label="Shadow"
       sodipodi:nodetypes="cccc"
       inkscape:connector-curvature="0"
       id="path1434-9-4"
       d="m 63.716495,56.027491 10.203112,-6.042776 4.360966,0.02588 z"
       style="fill:#ffffff;fill-opacity:1;stroke:none;stroke-width:0.105348px;stroke-linecap:butt;stroke-linejoin:miter;stroke-opacity:1" />
    <path
       inkscape:label="Shadow"
       sodipodi:nodetypes="cccc"
       inkscape:connector-curvature="0"
       id="path1434-9-4-2"
       d="m 78.395432,48.915434 -8.804294,-4.933101 2.28713,-0.880941 z"
       style="fill:#ffffff;fill-opacity:1;stroke:none;stroke-width:0.105348px;stroke-linecap:butt;stroke-linejoin:miter;stroke-opacity:1" />
    <path
       inkscape:label="Shadow"
       sodipodi:nodetypes="cccc"
       inkscape:connector-curvature="0"
       id="path1434-9-4-2-4"
       d="m 81.864053,56.027491 -7.099841,-2.502138 2.945725,-0.297588 z"
       style="fill:#ffffff;fill-opacity:1;stroke:none;stroke-width:0.105348px;stroke-linecap:butt;stroke-linejoin:miter;stroke-opacity:1" />
    <path
       inkscape:label="Light"
       sodipodi:nodetypes="cccc"
       inkscape:connector-curvature="0"
       id="path1381-5-9"
       d="M 63.716495,56.027491 73.919607,49.984715 68.624563,45.964163 Z"
       style="fill:#ffffff;fill-opacity:1;stroke:none;stroke-width:0.105348px;stroke-linecap:butt;stroke-linejoin:miter;stroke-opacity:1" />
    <path
       inkscape:label="Light"
       sodipodi:nodetypes="cccc"
       inkscape:connector-curvature="0"
       id="path1381-5-7"
       d="m 78.395428,48.915434 -6.51716,-5.814042 0.911903,-5.678241 z"
       style="fill:#ffffff;fill-opacity:1;stroke:none;stroke-width:0.105348px;stroke-linecap:butt;stroke-linejoin:miter;stroke-opacity:1" />
  </g>
</svg>
