<?xml version="1.0" encoding="UTF-8" standalone="no"?>
<!-- Created with Inkscape (http://www.inkscape.org/) -->

<svg
   width="180.82774mm"
   height="93.450615mm"
   viewBox="0 0 180.82774 93.450615"
   version="1.1"
   id="svg879"
   inkscape:version="1.2.1 (9c6d41e410, 2022-07-14)"
   sodipodi:docname="artix-logo.svg"
   inkscape:export-filename="../images/artix-logo.png"
   inkscape:export-xdpi="96"
   inkscape:export-ydpi="96"
   xmlns:inkscape="http://www.inkscape.org/namespaces/inkscape"
   xmlns:sodipodi="http://sodipodi.sourceforge.net/DTD/sodipodi-0.dtd"
   xmlns="http://www.w3.org/2000/svg"
   xmlns:svg="http://www.w3.org/2000/svg"
   xmlns:rdf="http://www.w3.org/1999/02/22-rdf-syntax-ns#"
   xmlns:cc="http://creativecommons.org/ns#"
   xmlns:dc="http://purl.org/dc/elements/1.1/">
  <title
     id="title1672">Artix Logo Horizontal ColorFull</title>
  <defs
     id="defs873" />
  <sodipodi:namedview
     id="base"
     pagecolor="#ffffff"
     bordercolor="#666666"
     borderopacity="1.0"
     inkscape:pageopacity="0.0"
     inkscape:pageshadow="2"
     inkscape:zoom="1.7202166"
     inkscape:cx="288.9171"
     inkscape:cy="206.36936"
     inkscape:document-units="mm"
     inkscape:current-layer="layer1"
     showgrid="false"
     inkscape:snap-page="true"
     inkscape:snap-bbox="true"
     inkscape:bbox-paths="false"
     showguides="true"
     inkscape:guide-bbox="true"
     inkscape:snap-object-midpoints="true"
     fit-margin-top="0"
     fit-margin-left="0"
     fit-margin-right="0"
     fit-margin-bottom="0"
     inkscape:showpageshadow="0"
     inkscape:pagecheckerboard="1"
     inkscape:deskcolor="#d1d1d1"
     inkscape:window-width="1918"
     inkscape:window-height="1057"
     inkscape:window-x="1920"
     inkscape:window-y="21"
     inkscape:window-maximized="1" />
  <metadata
     id="metadata876">
    <rdf:RDF>
      <cc:Work
         rdf:about="">
        <dc:format>image/svg+xml</dc:format>
        <dc:type
           rdf:resource="http://purl.org/dc/dcmitype/StillImage" />
        <dc:title>Artix Logo Horizontal ColorFull</dc:title>
        <cc:license
           rdf:resource="http://creativecommons.org/licenses/by-nc-sa/4.0/" />
      </cc:Work>
      <cc:License
         rdf:about="http://creativecommons.org/licenses/by-nc-sa/4.0/">
        <cc:permits
           rdf:resource="http://creativecommons.org/ns#Reproduction" />
        <cc:permits
           rdf:resource="http://creativecommons.org/ns#Distribution" />
        <cc:requires
           rdf:resource="http://creativecommons.org/ns#Notice" />
        <cc:requires
           rdf:resource="http://creativecommons.org/ns#Attribution" />
        <cc:prohibits
           rdf:resource="http://creativecommons.org/ns#CommercialUse" />
        <cc:permits
           rdf:resource="http://creativecommons.org/ns#DerivativeWorks" />
        <cc:requires
           rdf:resource="http://creativecommons.org/ns#ShareAlike" />
      </cc:License>
    </rdf:RDF>
  </metadata>
  <g
     inkscape:label="Layer 1"
     inkscape:groupmode="layer"
     id="layer1">
    <path
       style="font-style:normal;font-variant:normal;font-weight:normal;font-stretch:normal;font-size:17.6389px;line-height:1.25;font-family:'Bai Jamjuree';-inkscape-font-specification:'Bai Jamjuree';text-align:center;letter-spacing:0px;word-spacing:0px;text-anchor:middle;display:inline;fill:#ffffff;fill-opacity:1;stroke:none;stroke-width:0.149822"
       d="m 123.8752,42.100267 c -0.42374,0 -0.76781,0.132531 -1.03266,0.39738 -0.26485,0.264836 -0.39708,0.608907 -0.39708,1.032651 0,0.423738 0.13226,0.767811 0.39708,1.032653 0.26485,0.264841 0.60892,0.397379 1.03266,0.397379 0.42373,0 0.76869,-0.132545 1.03354,-0.397379 0.26484,-0.264842 0.39737,-0.608915 0.39737,-1.032653 0,-0.423744 -0.13255,-0.767815 -0.39737,-1.032651 -0.26485,-0.264843 -0.60981,-0.39738 -1.03354,-0.39738 z m -10.29668,0.847425 v 10.463477 c 0,1.377159 0.29951,2.3654 0.89981,2.965691 0.61795,0.6003 1.62501,0.900686 3.01982,0.900686 h 1.43003 v -1.695144 h -1.43003 c -0.72389,0 -1.24477,-0.167555 -1.56258,-0.503014 -0.30016,-0.335466 -0.49876,-0.89289 -0.45004,-1.668219 V 48.64177 h 3.44265 v -1.695146 h -3.44265 v -3.998932 z m -21.871814,3.787075 v 1.668808 h 4.730774 c 0.759203,0 1.36806,0.237866 1.827116,0.714577 0.459055,0.45905 0.689117,1.059521 0.689117,1.801069 v 0.160652 c -0.441398,-0.300154 -0.970963,-0.53802 -1.588921,-0.714577 -0.617957,-0.176552 -1.219017,-0.265409 -1.801657,-0.265409 h -1.694557 c -1.30653,0 -2.357286,0.335398 -3.1518,1.006321 -0.794515,0.67092 -1.191838,1.562756 -1.191838,2.683902 0,1.121152 0.379967,2.022049 1.139165,2.692972 0.776865,0.670919 1.809081,1.006316 3.097956,1.006316 h 1.589216 c 0.70623,0 1.386577,-0.185498 2.039852,-0.556269 0.670923,-0.370771 1.209175,-0.8743 1.615258,-1.509912 v 1.854329 h 1.801073 v -6.358325 c 0,-1.253565 -0.40601,-2.259749 -1.218178,-3.018948 -0.794515,-0.776859 -1.845264,-1.165506 -3.151802,-1.165506 z m 12.984094,0.211857 v 10.330922 h 1.907 v -4.715853 c 0,-1.182941 0.34408,-2.128074 1.03266,-2.834309 0.70623,-0.723892 1.62444,-1.085614 2.75442,-1.085614 v -1.695146 c -0.77686,0 -1.52693,0.194175 -2.25082,0.582606 -0.70624,0.388428 -1.23581,0.891956 -1.58893,1.509914 v -2.09252 z m 18.23164,0 v 10.330922 h 1.9064 V 46.946624 Z m 5.02164,0 4.58005,5.165317 -4.58005,5.165605 h 2.54812 l 3.30572,-3.728846 3.30659,3.728846 h 2.54783 l -4.57978,-5.165605 4.57978,-5.165317 h -2.54783 l -3.30659,3.728848 -3.30572,-3.728848 z m -34.075502,4.822072 h 1.694557 c 0.653269,0 1.289045,0.105623 1.906997,0.317492 0.635613,0.194213 1.130461,0.459005 1.483581,0.794464 v 0.132559 c -0.229529,0.847482 -0.671122,1.527829 -1.324395,2.039846 -0.653264,0.512029 -1.394664,0.767544 -2.224491,0.767544 h -1.642766 c -0.70623,0 -1.270518,-0.184909 -1.694262,-0.555686 -0.423738,-0.370777 -0.635567,-0.86567 -0.635567,-1.474799 0,-0.60913 0.22051,-1.094375 0.661904,-1.465144 0.459054,-0.370777 1.05055,-0.556271 1.774442,-0.556271 z"
       id="path4885-0"
       inkscape:connector-curvature="0"
       inkscape:label="Sign" />
    <path
       inkscape:label="Base"
       inkscape:connector-curvature="0"
       id="path886"
       d="m 76.620707,37.423151 -4.549642,9.328406 12.521176,7.015547 z m -5.924073,12.146622 -6.980139,14.311711 20.71246,-8.557062 z m 15.263893,7.002959 -6.532431,3.750206 10.097116,3.558546 z"
       style="display:inline;fill:#ffffff;fill-opacity:1;stroke:none;stroke-width:0.0565962;stroke-linecap:butt;stroke-linejoin:miter;stroke-miterlimit:4;stroke-dasharray:none;stroke-opacity:1"
       sodipodi:nodetypes="cccccccccccc" />
    <path
       inkscape:label="Light"
       inkscape:connector-curvature="0"
       id="path947"
       d="m 83.617397,59.899828 2.343136,-3.327367 3.564679,7.309018 z"
       style="fill:#ffffff;fill-opacity:1;stroke:none;stroke-width:0.149822px;stroke-linecap:butt;stroke-linejoin:miter;stroke-opacity:1" />
    <path
       inkscape:label="Shadow"
       sodipodi:nodetypes="cccc"
       inkscape:connector-curvature="0"
       id="path1434-9-4"
       d="m 63.716495,63.881484 14.51045,-8.593789 6.201988,0.03681 z"
       style="fill:#ffffff;fill-opacity:1;stroke:none;stroke-width:0.149822px;stroke-linecap:butt;stroke-linejoin:miter;stroke-opacity:1" />
    <path
       inkscape:label="Shadow"
       sodipodi:nodetypes="cccc"
       inkscape:connector-curvature="0"
       id="path1434-9-4-2"
       d="M 84.59228,53.767007 72.071173,46.751352 75.323836,45.498514 Z"
       style="fill:#ffffff;fill-opacity:1;stroke:none;stroke-width:0.149822px;stroke-linecap:butt;stroke-linejoin:miter;stroke-opacity:1" />
    <path
       inkscape:label="Shadow"
       sodipodi:nodetypes="cccc"
       inkscape:connector-curvature="0"
       id="path1434-9-4-2-4"
       d="m 89.525212,63.881484 -10.097105,-3.558438 4.18929,-0.423218 z"
       style="fill:#ffffff;fill-opacity:1;stroke:none;stroke-width:0.149822px;stroke-linecap:butt;stroke-linejoin:miter;stroke-opacity:1" />
    <path
       inkscape:label="Light"
       sodipodi:nodetypes="cccc"
       inkscape:connector-curvature="0"
       id="path1381-5-9"
       d="M 63.716495,63.881484 78.226945,55.287695 70.696549,49.56983 Z"
       style="fill:#ffffff;fill-opacity:1;stroke:none;stroke-width:0.149822px;stroke-linecap:butt;stroke-linejoin:miter;stroke-opacity:1" />
    <path
       inkscape:label="Light"
       sodipodi:nodetypes="cccc"
       inkscape:connector-curvature="0"
       id="path1381-5-7"
       d="m 84.592275,53.767007 -9.268439,-8.268493 1.296871,-8.075363 z"
       style="fill:#ffffff;fill-opacity:1;stroke:none;stroke-width:0.149822px;stroke-linecap:butt;stroke-linejoin:miter;stroke-opacity:1" />
  </g>
</svg>
