<?xml version="1.0" encoding="UTF-8" standalone="no"?>
<svg
   height="800"
   width="1200"
   viewBox="-79.14375 -132.0835 685.9125 792.501"
   version="1.1"
   id="svg244"
   sodipodi:docname="logo-vim.svg"
   inkscape:version="1.2.1 (9c6d41e410, 2022-07-14)"
   inkscape:export-filename="../images/logo-vim.png"
   inkscape:export-xdpi="96"
   inkscape:export-ydpi="96"
   xmlns:inkscape="http://www.inkscape.org/namespaces/inkscape"
   xmlns:sodipodi="http://sodipodi.sourceforge.net/DTD/sodipodi-0.dtd"
   xmlns="http://www.w3.org/2000/svg"
   xmlns:svg="http://www.w3.org/2000/svg">
  <defs
     id="defs248" />
  <sodipodi:namedview
     id="namedview246"
     pagecolor="#505050"
     bordercolor="#ffffff"
     borderopacity="1"
     inkscape:showpageshadow="0"
     inkscape:pageopacity="0"
     inkscape:pagecheckerboard="1"
     inkscape:deskcolor="#505050"
     showgrid="false"
     inkscape:zoom="0.74953319"
     inkscape:cx="720.44842"
     inkscape:cy="358.89005"
     inkscape:window-width="1918"
     inkscape:window-height="1057"
     inkscape:window-x="1920"
     inkscape:window-y="21"
     inkscape:window-maximized="1"
     inkscape:current-layer="svg244" />
  <path
     d="M 262.29411,27.553709 25.504612,264.66243 261.30878,500.78283 498.09828,263.67411 Z"
     fill="#019833"
     stroke-width="1.38262"
     id="path206"
     style="stroke:#000000;fill:#ffffff" />
  <path
     d="M 261.30878,28.542034 V 7.7941844 L 3.7983074,265.65075 H 25.504612 Z"
     fill="#66fe98"
     stroke-width="1.38262"
     id="path208"
     style="stroke:#000000;fill:#ffffff" />
  <path
     d="M 260.71575,28.542034 V 7.7941844 L 518.2247,265.65075 h -21.70478 z"
     fill="#45fe02"
     stroke-width="1.38262"
     id="path210"
     style="stroke:#000000;fill:#ffffff" />
  <path
     d="m 261.30878,502.16564 v 20.74785 L 3.7983074,265.05692 H 25.504612 Z"
     fill="#017d17"
     stroke-width="1.38262"
     id="path212"
     style="stroke:#000000;fill:#ffffff" />
  <path
     d="M 51.570566,33.981305 H 217.61115 l 10.11684,10.12998 V 75.19821 l -8.02359,9.780093 H 201.5655 V 239.36606 L 357.83863,84.978303 H 332.02552 L 322.95683,75.19821 V 42.36464 l 8.37145,-7.683562 h 168.13383 l 8.37145,8.381941 V 73.800058 L 127.61695,464.31378 H 84.362179 L 71.842553,457.0749 V 83.581545 H 50.874861 l -7.67421,-7.684956 v -32.83357 z"
     fill="none"
     stroke-width="27.6436"
     id="path214"
     style="stroke:#000000" />
  <path
     d="m 260.71575,502.16564 v 20.74785 L 518.2247,265.05692 h -21.70478 z"
     fill="#005d04"
     stroke-width="1.38262"
     id="path216"
     style="stroke:#000000;fill:#ffffff" />
  <path
     d="M 260.61308,5.8816576 2.1356643,264.70704 259.53581,522.45488 518.01476,263.6295 Z"
     fill="none"
     stroke-width="8.29279"
     id="path218"
     style="stroke:#000000" />
  <path
     d="m 219.37646,49.783349 9.37363,-4.94023 -9.62034,-9.632333 H 51.65025 l -8.509362,8.521339 v 32.231374 l 9.434925,9.446935 4.50063,-9.446935 -5.919623,-5.92716 V 47.313234 l 4.439334,-3.951905 H 215.43056 Z"
     fill="#fefefe"
     stroke-width="1.38262"
     id="path220"
     style="stroke:#000000" />
  <path
     d="m 337.78098,42.366535 -5.9146,5.92118 v 21.74142 l 5.17977,5.186737 h 27.3671 V 96.222851 L 183.37986,279.96061 V 75.475901 h 30.08682 L 219.6382,69.29331 V 47.293244 l -5.69774,-4.408035 H 55.612383 l -5.179762,5.186737 v 22.475863 l 5.266782,5.273874 h 27.53838 V 452.37883 l 5.179763,5.18673 H 119.71298 L 499.08569,65.575456 V 48.286331 l -5.9146,-5.921179 z"
     fill="none"
     id="path222"
     style="stroke:#000000;stroke-width:1.3822" />
  <path
     d="m 82.966172,75.19821 v 377.23756 l 4.882195,5.58981 -3.829443,7.3072 L 73.198718,454.5309 V 84.978303 Z"
     fill="#fefefe"
     stroke-width="1.38262"
     id="path224"
     style="stroke:#000000" />
  <path
     d="m 55.908762,75.19821 -2.792015,9.081714 H 73.348892 L 84.512353,75.19821 Z"
     fill="#808080"
     stroke-width="1.38262"
     id="path226"
     style="stroke:#000000" />
  <path
     d="m 333.82454,85.397888 4.44087,-9.137473 -6.41305,-5.928554 V 50.07887 l 7.39991,-7.40895 h 154.40668 l 5.91962,7.90381 8.38524,-5.928555 -8.63195,-8.644008 H 333.33111 l -8.26264,8.273212 V 76.75388 l 8.57219,8.089208 M 199.49064,240.79627 183.3653,279.97519 365.39791,97.204814 v -21.73478 z"
     fill="#fefefe"
     stroke-width="1.38262"
     id="path228"
     style="stroke:#000000" />
  <path
     d="m 219.00716,48.651445 8.02359,-5.238539 V 75.19821 l -9.24491,9.255961 H 199.82317 V 241.1127 l -16.39504,38.77188 V 75.19821 h 29.9996 l 5.58096,-4.540161 z"
     fill="#808080"
     stroke-width="1.38262"
     id="path230"
     style="stroke:#000000" />
  <path
     d="m 337.78098,42.366535 -5.9146,5.92118 v 21.74142 l 5.17977,5.186737 h 27.3671 V 96.222851 L 183.37986,279.96061 V 75.475901 h 30.08682 L 219.6382,69.29331 V 47.293244 l -5.69774,-4.408035 H 55.612383 l -5.179762,5.186737 v 22.475863 l 5.266782,5.273874 h 27.53838 V 452.37883 l 5.179763,5.18673 H 119.71298 L 499.08569,65.575456 V 48.286331 l -5.9146,-5.921179 z"
     fill="#cccccc"
     id="path232"
     style="stroke:#000000;stroke-width:1.3822;fill:#ffffff" />
  <path
     d="m 499.57857,48.795024 8.42508,-4.871925 v 30.55861 L 125.84091,465.51817 H 85.266289 l 3.876947,-7.71283 H 120.22011 L 499.08514,66.08304 Z m -134.93766,26.927319 -8.54614,8.907468 h -22.32386 l 5.23158,-8.907468 z"
     fill="#808080"
     stroke-width="1.38262"
     id="path234"
     style="stroke:#000000;fill:#ffffff" />
  <path
     d="m 273.50929,296.1888 a 1.7031059,1.7053993 0 0 0 -0.77627,0.38866 l -7.33869,6.31122 a 1.7031059,1.7053993 0 0 0 -0.47516,0.73444 l -7.3373,20.57406 a 1.7031059,1.7053993 0 0 0 0.38813,1.77179 l 5.6121,5.61966 a 1.7031059,1.7053993 0 0 0 1.20862,0.47441 h 22.66111 a 1.7031059,1.7053993 0 0 0 1.20861,-0.47441 l 5.91322,-5.96544 a 1.7031059,1.7053993 0 0 0 0.43234,-0.73444 l 6.30135,-21.65429 a 1.7031059,1.7053993 0 0 0 -0.43096,-1.68603 l -4.87726,-4.88383 a 1.7031059,1.7053993 0 0 0 -1.20861,-0.4758 h -20.93729 a 1.7031059,1.7053993 0 0 0 -0.34532,0 z m -41.52374,58.00571 a 1.7031059,1.7053993 0 0 0 -1.29563,1.25311 l -2.80536,11.1508 a 1.7031059,1.7053993 0 0 0 1.64095,2.11895 h 13.33754 l -33.06484,94.52725 a 1.7031059,1.7053993 0 0 0 1.59675,2.24759 h 48.12897 a 1.7031059,1.7053993 0 0 0 1.64095,-1.16598 l 3.15068,-10.1577 a 1.7031059,1.7053993 0 0 0 -1.64095,-2.20471 h -10.8775 l 32.71952,-95.52311 a 1.7031059,1.7053993 0 0 0 -1.59675,-2.24759 h -50.58901 a 1.7031059,1.7053993 0 0 0 -0.34532,0 z m 153.14831,0.34578 a 1.7031059,1.7053993 0 0 0 -0.95031,0.56155 l -10.01421,11.32368 h -15.92742 l -10.61921,-11.02078 a 1.7031059,1.7053993 0 0 0 -1.20861,-0.51867 h -38.02636 a 1.7031059,1.7053993 0 0 0 -1.59813,1.1231 l -3.49599,10.46061 a 1.7031059,1.7053993 0 0 0 1.59675,2.24759 h 10.18686 l -31.68357,93.48991 a 1.7031059,1.7053993 0 0 0 1.59813,2.24758 h 40.48779 a 1.7031059,1.7053993 0 0 0 1.59674,-1.1231 l 3.10786,-9.12036 a 1.7031059,1.7053993 0 0 0 -1.59675,-2.24758 h -7.07901 l 20.20108,-63.66686 h 36.56083 l -23.05063,73.95319 a 1.7031059,1.7053993 0 0 0 1.64095,2.20471 h 39.0637 a 1.7031059,1.7053993 0 0 0 1.55392,-1.03734 l 3.496,-8.38454 a 1.7031059,1.7053993 0 0 0 -1.55393,-2.33472 h -7.07901 l 20.54639,-64.74708 h 34.79143 l -23.39595,74.29897 a 1.7031059,1.7053993 0 0 0 1.64095,2.20471 h 42.90639 a 1.7031059,1.7053993 0 0 0 1.59675,-1.08022 l 3.49599,-9.12036 a 1.7031059,1.7053993 0 0 0 -1.59675,-2.29046 h -8.50448 l 25.85738,-84.06803 a 1.7031059,1.7053993 0 0 0 -0.25968,-1.55602 l -8.02932,-10.80639 a 1.7031059,1.7053993 0 0 0 -1.38127,-0.64731 H 449.3201 a 1.7031059,1.7053993 0 0 0 -1.25281,0.51867 l -9.66889,10.63213 h -16.92056 l -10.01421,-10.97929 a 1.7031059,1.7053993 0 0 0 -1.25143,-0.51867 h -24.73302 a 1.7031059,1.7053993 0 0 0 -0.34532,0 z"
     stroke-width="11.0576"
     id="path236"
     style="fill:#cccccc;stroke:#000000;stroke-miterlimit:10" />
  <path
     d="m 273.85461,297.87484 -7.33731,6.30983 -7.33868,20.57406 5.6121,5.61966 h 22.66111 l 5.91322,-5.96544 6.30273,-21.65428 -4.87726,-4.88383 z m -41.52374,58.00432 -2.80536,11.15218 h 15.71195 l -33.84112,96.77484 h 48.12759 l 3.15068,-10.15633 h -13.25052 l 33.49579,-97.77069 z m 153.14831,0.34578 -10.48936,11.88662 H 357.55128 L 346.4141,356.57072 h -38.02636 l -3.49737,10.46062 h 12.56126 l -32.45984,95.73749 h 40.48779 l 3.10785,-9.11898 h -9.40921 l 21.27985,-67.03893 h 40.14385 l -23.74127,76.15929 h 39.0637 l 3.49599,-8.38592 h -9.40921 l 21.62516,-68.11915 h 38.37306 l -24.0852,76.50507 h 42.90639 l 3.49461,-9.12036 h -10.8333 l 26.54663,-86.27273 -8.02932,-10.8064 H 449.3201 L 439.17605,367.7229 H 420.70157 L 410.2122,356.22494 Z"
     id="path238"
     style="fill:#ffffff;stroke:#000000;stroke-width:1.3822;stroke-miterlimit:10" />
</svg>
